<svg width="24" height="24" viewBox="0 0 24 24" fill="none" xmlns="http://www.w3.org/2000/svg">
<path d="M13 18.9995C13.0001 19.1699 13.0437 19.3374 13.1267 19.4862C13.2098 19.635 13.3294 19.7601 13.4744 19.8497C13.6194 19.9392 13.7848 19.9903 13.955 19.9979C14.1252 20.0056 14.2946 19.9696 14.447 19.8935L18.447 17.8935C18.6131 17.8105 18.7528 17.6829 18.8504 17.525C18.9481 17.3671 18.9999 17.1851 19 16.9995V11.2355C18.9999 11.0651 18.9563 10.8975 18.8733 10.7487C18.7902 10.5999 18.6706 10.4748 18.5256 10.3853C18.3806 10.2957 18.2152 10.2447 18.045 10.237C17.8748 10.2293 17.7054 10.2653 17.553 10.3415L13.553 12.3415C13.3869 12.4245 13.2472 12.552 13.1496 12.7099C13.0519 12.8678 13.0001 13.0498 13 13.2355V18.9995ZM17.211 8.27547C17.3769 8.19233 17.5164 8.06468 17.6138 7.90679C17.7113 7.74891 17.7629 7.56702 17.7629 7.38147C17.7629 7.19592 17.7113 7.01403 17.6138 6.85614C17.5164 6.69826 17.3769 6.5706 17.211 6.48747L12.447 4.10547C12.3082 4.03611 12.1552 4 12 4C11.8448 4 11.6918 4.03611 11.553 4.10547L6.789 6.48747C6.62312 6.5706 6.48364 6.69826 6.38617 6.85614C6.28869 7.01403 6.23707 7.19592 6.23707 7.38147C6.23707 7.56702 6.28869 7.74891 6.38617 7.90679C6.48364 8.06468 6.62312 8.19233 6.789 8.27547L11.553 10.6575C11.6918 10.7268 11.8448 10.7629 12 10.7629C12.1552 10.7629 12.3082 10.7268 12.447 10.6575L17.211 8.27547ZM6.447 10.3415C6.29458 10.2653 6.12522 10.2293 5.95501 10.237C5.78479 10.2447 5.61935 10.2957 5.47439 10.3853C5.32944 10.4748 5.20977 10.5999 5.12674 10.7487C5.04372 10.8975 5.00009 11.0651 5 11.2355V16.9995C5.0001 17.1851 5.05188 17.3671 5.14955 17.525C5.24722 17.6829 5.38692 17.8105 5.553 17.8935L9.553 19.8935C9.70542 19.9696 9.87477 20.0056 10.045 19.9979C10.2152 19.9903 10.3806 19.9392 10.5256 19.8497C10.6706 19.7601 10.7902 19.635 10.8733 19.4862C10.9563 19.3374 10.9999 19.1699 11 18.9995V13.2355C10.9999 13.0498 10.9481 12.8678 10.8504 12.7099C10.7528 12.552 10.6131 12.4245 10.447 12.3415L6.447 10.3415Z" fill="#84919A"/>
</svg>
