<svg width="16" height="16" viewBox="0 0 16 16" fill="none" xmlns="http://www.w3.org/2000/svg">
<path d="M8.70643 0.292786C8.5189 0.105315 8.2646 0 7.99943 0C7.73427 0 7.47996 0.105315 7.29243 0.292786L0.292431 7.29279C0.110272 7.48139 0.00947813 7.73399 0.0117566 7.99619C0.014035 8.25838 0.119204 8.5092 0.304612 8.6946C0.49002 8.88001 0.740832 8.98518 1.00303 8.98746C1.26523 8.98974 1.51783 8.88894 1.70643 8.70679L1.99943 8.41379V14.9998C1.99943 15.265 2.10479 15.5194 2.29232 15.7069C2.47986 15.8944 2.73421 15.9998 2.99943 15.9998H4.99943C5.26465 15.9998 5.519 15.8944 5.70654 15.7069C5.89407 15.5194 5.99943 15.265 5.99943 14.9998V12.9998C5.99943 12.7346 6.10479 12.4802 6.29232 12.2927C6.47986 12.1051 6.73421 11.9998 6.99943 11.9998H8.99943C9.26465 11.9998 9.519 12.1051 9.70654 12.2927C9.89407 12.4802 9.99943 12.7346 9.99943 12.9998V14.9998C9.99943 15.265 10.1048 15.5194 10.2923 15.7069C10.4799 15.8944 10.7342 15.9998 10.9994 15.9998H12.9994C13.2646 15.9998 13.519 15.8944 13.7065 15.7069C13.8941 15.5194 13.9994 15.265 13.9994 14.9998V8.41379L14.2924 8.70679C14.481 8.88894 14.7336 8.98974 14.9958 8.98746C15.258 8.98518 15.5088 8.88001 15.6942 8.6946C15.8797 8.5092 15.9848 8.25838 15.9871 7.99619C15.9894 7.73399 15.8886 7.48139 15.7064 7.29279L8.70643 0.292786Z" fill="#84919A"/>
</svg>
